<svg id="svg" version="1.1" xmlns="http://www.w3.org/2000/svg" xmlns:xlink="http://www.w3.org/1999/xlink" width="400" height="400" viewBox="0, 0, 400,400"><g id="svgg"><path id="path0" d="M113.827 119.031 C 112.998 119.860,112.853 246.293,113.680 247.120 C 114.376 247.816,197.624 247.816,198.320 247.120 C 198.681 246.759,198.800 241.633,198.800 226.510 L 198.800 206.380 197.774 205.990 C 197.157 205.755,188.736 205.600,176.636 205.600 C 156.695 205.600,156.518 205.593,155.762 204.758 C 154.616 203.491,154.571 162.458,155.714 161.314 C 156.378 160.650,157.881 160.592,177.228 160.490 L 198.028 160.379 198.425 159.335 C 198.909 158.060,198.758 119.424,198.267 118.933 C 197.571 118.237,114.524 118.333,113.827 119.031 M72.080 282.880 C 71.259 283.701,71.471 287.103,72.374 287.586 C 72.822 287.826,76.086 288.000,80.145 288.000 C 86.861 288.000,88.400 288.257,88.400 289.380 C 88.400 289.920,86.929 292.529,85.795 294.000 C 85.032 294.990,84.096 296.250,83.716 296.800 C 82.432 298.655,77.418 305.473,74.428 309.428 C 71.776 312.936,71.026 315.239,71.843 317.367 C 72.160 318.194,97.500 318.340,98.320 317.520 C 98.935 316.905,98.947 313.338,98.336 312.961 C 98.081 312.803,94.561 312.640,90.513 312.600 C 79.393 312.488,79.163 314.070,93.035 295.222 C 98.516 287.775,98.800 287.282,98.800 285.235 C 98.800 282.294,99.309 282.400,85.200 282.400 C 75.902 282.400,72.433 282.527,72.080 282.880 M137.680 283.507 C 135.956 283.699,135.600 284.666,135.600 289.164 C 135.600 293.047,135.106 294.000,133.095 294.000 C 130.582 294.000,129.947 294.610,130.079 296.898 C 130.211 299.197,129.991 299.043,134.273 299.839 C 135.552 300.077,135.680 300.924,135.680 309.141 C 135.679 318.194,135.603 318.000,139.171 318.000 C 142.600 318.000,142.400 318.553,142.400 309.056 C 142.400 298.983,141.970 299.600,149.000 299.600 C 156.037 299.600,155.598 298.964,155.606 309.189 C 155.613 318.308,155.560 318.151,158.637 318.050 C 162.112 317.937,162.000 318.233,162.000 309.151 C 162.000 300.267,162.197 299.600,164.826 299.600 C 166.930 299.600,167.600 298.984,167.600 297.048 C 167.600 295.023,166.722 294.003,164.969 293.994 C 162.721 293.982,162.003 292.649,161.995 288.474 C 161.985 283.967,161.363 283.151,158.200 283.501 C 155.937 283.751,155.600 284.389,155.600 288.423 C 155.600 293.749,155.304 294.002,149.071 293.994 C 142.651 293.986,142.400 293.762,142.400 288.050 C 142.400 283.857,141.585 283.072,137.680 283.507 M111.942 293.941 C 98.415 297.467,99.176 316.035,112.944 318.390 C 120.067 319.609,126.997 315.958,123.083 313.049 L 121.967 312.219 119.483 313.110 C 115.421 314.567,111.384 313.773,109.877 311.222 C 108.158 308.313,109.003 308.000,118.560 308.000 C 127.676 308.000,127.491 308.090,127.053 303.899 C 126.291 296.615,119.316 292.018,111.942 293.941 M178.745 294.183 C 170.122 296.560,168.000 310.219,175.333 316.148 C 178.334 318.574,182.207 319.132,186.548 317.764 C 188.347 317.197,188.976 317.152,189.807 317.531 C 191.204 318.167,195.859 318.145,196.276 317.500 C 196.815 316.668,196.761 295.699,196.218 294.957 C 195.499 293.974,192.309 293.773,190.201 294.578 C 188.475 295.237,188.332 295.232,186.191 294.431 C 183.702 293.500,181.490 293.426,178.745 294.183 M118.730 299.494 C 122.276 302.355,120.867 304.004,114.856 304.031 C 109.925 304.054,109.600 303.966,109.600 302.609 C 109.600 298.660,115.290 296.719,118.730 299.494 M185.699 299.595 C 186.843 299.603,189.553 302.351,190.048 304.004 C 191.436 308.635,188.638 312.600,183.983 312.600 L 181.109 312.600 179.557 310.851 C 177.090 308.071,176.814 305.854,178.524 302.547 C 179.550 300.563,182.403 298.982,184.200 299.402 C 184.640 299.505,185.314 299.592,185.699 299.595 " stroke="none" fill="#0d5af4" fill-rule="evenodd"></path><path id="path1" d="M200.480 75.280 C 199.654 76.106,199.802 116.638,200.633 116.957 C 200.981 117.091,210.431 117.200,221.633 117.200 C 241.467 117.200,242.021 117.221,242.800 118.000 C 244.022 119.222,244.055 159.350,242.835 160.856 L 242.070 161.800 221.628 161.860 C 210.385 161.893,200.920 162.022,200.593 162.147 C 200.079 162.344,200.000 165.155,200.000 183.133 L 200.000 203.891 201.885 204.150 C 202.921 204.292,221.994 204.402,244.269 204.394 L 284.768 204.381 285.384 203.501 C 286.203 202.332,286.337 76.097,285.520 75.280 C 284.824 74.584,201.176 74.584,200.480 75.280 M112.925 117.514 C 111.637 118.333,111.600 120.166,111.600 183.550 C 111.600 237.755,111.683 247.161,112.168 247.824 C 113.082 249.073,197.953 249.247,199.198 248.002 C 199.992 247.208,200.005 246.808,199.904 225.896 L 199.800 204.600 178.520 204.400 C 163.193 204.256,157.110 204.071,156.777 203.738 C 156.215 203.175,156.207 162.833,156.770 162.270 C 157.334 161.706,159.839 161.637,180.500 161.618 L 200.000 161.600 200.000 139.400 L 200.000 117.200 156.700 117.206 C 132.885 117.209,113.186 117.348,112.925 117.514 M198.624 118.168 C 199.454 118.775,199.883 159.850,199.067 160.667 C 198.884 160.850,189.284 161.090,177.735 161.200 C 157.399 161.394,156.717 161.425,156.157 162.191 C 155.131 163.595,155.528 203.466,156.576 204.232 C 157.223 204.705,160.783 204.800,177.854 204.800 L 198.355 204.800 198.977 205.689 C 199.872 206.966,199.924 246.205,199.032 247.424 C 198.476 248.184,197.574 248.200,155.997 248.200 L 113.529 248.200 112.796 247.295 C 112.093 246.426,112.062 243.893,112.033 184.695 C 112.003 122.796,112.080 119.116,113.428 118.130 C 114.546 117.312,197.504 117.349,198.624 118.168 M71.200 282.000 C 70.584 282.616,70.400 283.333,70.400 285.124 C 70.400 288.995,70.342 288.967,78.867 289.200 C 87.563 289.437,87.667 289.514,84.697 293.469 C 83.734 294.751,81.951 297.150,80.736 298.800 C 79.520 300.450,77.250 303.527,75.693 305.639 C 69.914 313.470,68.997 316.233,71.382 318.618 L 72.364 319.600 85.128 319.600 C 100.391 319.600,100.000 319.710,100.000 315.433 C 100.000 311.508,99.793 311.407,91.657 311.370 C 83.649 311.333,84.000 311.375,84.000 310.466 C 84.000 309.680,84.987 308.209,90.757 300.400 C 92.789 297.650,94.888 294.770,95.422 294.000 C 95.956 293.230,97.205 291.455,98.197 290.055 C 100.398 286.949,100.833 283.029,99.111 281.823 C 97.569 280.743,72.297 280.903,71.200 282.000 M233.935 282.100 C 233.074 283.673,233.394 317.248,234.277 317.900 C 235.354 318.697,238.666 318.534,239.560 317.640 C 240.499 316.701,240.853 284.231,239.945 282.239 C 239.270 280.759,234.727 280.653,233.935 282.100 M302.759 281.850 C 302.036 282.721,302.110 316.969,302.837 317.844 C 303.477 318.616,307.179 318.570,308.311 317.777 C 309.139 317.197,309.200 316.847,309.206 312.677 C 309.216 305.413,310.128 305.424,315.132 312.748 C 318.959 318.351,319.026 318.400,322.786 318.400 C 325.725 318.400,326.644 317.835,325.764 316.568 C 325.564 316.279,323.825 313.856,321.900 311.181 C 317.526 305.104,317.524 305.450,321.974 299.725 C 326.201 294.287,326.212 294.000,322.204 294.000 C 318.824 294.000,318.685 294.111,314.047 300.500 C 309.545 306.703,309.200 306.151,309.200 292.741 C 309.200 286.617,309.040 282.448,308.786 281.974 C 308.228 280.931,303.600 280.836,302.759 281.850 M98.800 282.400 C 101.305 284.905,100.423 286.561,86.728 305.061 C 81.619 311.963,81.644 312.000,91.345 312.000 C 99.348 312.000,99.600 312.102,99.600 315.330 C 99.600 318.946,100.207 318.800,85.161 318.800 C 72.061 318.800,72.045 318.799,71.423 317.911 C 69.818 315.620,70.696 313.304,75.800 306.356 C 77.120 304.559,78.560 302.596,79.000 301.993 C 79.440 301.390,81.150 299.056,82.800 296.806 C 89.011 288.337,89.284 288.872,78.667 288.706 C 70.940 288.584,70.800 288.520,70.800 285.124 C 70.800 281.508,70.425 281.600,85.200 281.600 C 97.467 281.600,98.033 281.633,98.800 282.400 M135.912 282.403 C 134.937 283.003,134.375 285.466,134.444 288.838 C 134.513 292.177,134.058 292.800,131.546 292.800 C 129.559 292.800,128.800 293.883,128.800 296.715 C 128.800 299.767,129.176 300.255,131.782 300.580 C 134.655 300.939,134.515 300.479,134.624 309.950 C 134.735 319.547,134.757 319.600,138.618 319.600 C 143.546 319.600,143.585 319.523,143.600 309.800 C 143.615 300.003,143.235 300.680,148.746 300.638 C 154.558 300.595,154.178 300.001,154.304 309.319 C 154.443 319.528,154.473 319.600,158.559 319.600 C 163.124 319.600,163.496 318.882,163.328 310.400 C 163.197 303.727,163.413 301.226,164.140 301.003 C 164.393 300.926,165.285 300.748,166.122 300.609 C 170.456 299.887,170.333 292.800,165.987 292.800 C 163.901 292.800,163.586 292.197,163.362 287.775 C 163.081 282.234,162.456 281.624,157.548 282.095 C 154.643 282.375,154.373 282.803,154.280 287.293 C 154.170 292.575,153.946 292.800,148.800 292.800 C 143.775 292.800,143.717 292.740,143.536 287.319 C 143.449 284.698,143.217 283.055,142.887 282.726 C 142.239 282.080,136.845 281.830,135.912 282.403 M204.000 282.338 C 201.947 282.622,202.000 282.150,202.000 300.220 C 202.000 315.518,202.064 317.207,202.670 317.813 C 203.582 318.725,220.652 318.497,222.600 317.547 C 229.682 314.094,231.428 307.036,226.558 301.552 C 224.430 299.157,224.432 299.193,226.297 296.485 C 229.485 291.857,228.269 286.759,223.200 283.500 C 221.858 282.638,207.930 281.795,204.000 282.338 M142.444 283.453 C 142.778 283.855,143.065 285.593,143.193 287.992 C 143.472 293.225,143.445 293.200,148.849 293.200 C 154.578 293.200,154.800 293.009,154.800 288.089 C 154.800 283.280,155.161 282.800,158.774 282.800 C 162.340 282.800,162.530 283.050,162.793 288.085 C 163.021 292.462,163.437 293.200,165.676 293.200 C 167.508 293.200,168.400 294.448,168.400 297.009 C 168.400 299.449,168.141 299.699,165.105 300.192 C 162.925 300.546,162.800 301.062,162.800 309.745 C 162.800 318.995,162.884 318.800,158.903 318.800 C 154.727 318.800,154.800 318.963,154.800 309.614 C 154.800 299.720,155.097 300.246,149.419 300.063 C 146.015 299.954,144.976 300.055,144.186 300.572 L 143.200 301.218 143.200 309.278 C 143.200 319.036,143.305 318.800,138.952 318.800 C 135.111 318.800,135.200 319.020,135.200 309.503 C 135.200 300.614,135.172 300.527,132.200 300.154 C 127.813 299.604,127.812 293.904,132.199 293.276 C 134.747 292.912,135.186 292.090,135.194 287.674 C 135.202 283.010,135.364 282.800,138.965 282.800 C 141.193 282.800,142.033 282.958,142.444 283.453 M217.996 287.957 C 221.437 288.915,221.635 295.212,218.261 296.389 C 216.286 297.077,210.786 296.912,209.931 296.138 C 208.746 295.065,208.865 289.080,210.089 288.223 C 211.022 287.569,216.000 287.401,217.996 287.957 M226.394 289.500 C 226.389 290.301,226.291 290.447,226.031 290.036 C 225.835 289.726,225.767 289.231,225.880 288.936 C 226.204 288.090,226.401 288.306,226.394 289.500 M111.800 292.539 C 95.343 296.799,98.566 320.000,115.615 320.000 C 123.994 320.000,128.262 315.481,123.391 311.766 L 121.966 310.679 119.987 311.606 C 116.252 313.355,110.952 312.545,111.275 310.275 C 111.397 309.418,111.557 309.396,119.088 309.200 C 128.718 308.949,128.611 309.006,128.292 304.363 C 127.726 296.100,119.851 290.454,111.800 292.539 M179.894 292.435 C 169.960 294.776,166.132 307.876,173.113 315.641 C 176.512 319.422,181.230 320.820,185.771 319.392 C 187.767 318.764,188.290 318.742,190.219 319.204 C 193.334 319.952,196.787 319.380,197.498 318.000 C 198.423 316.204,198.018 294.723,197.038 293.641 C 196.157 292.669,191.264 292.423,189.429 293.260 C 188.607 293.634,187.935 293.560,185.802 292.860 C 182.993 291.938,182.237 291.883,179.894 292.435 M119.486 293.442 C 123.641 294.835,126.835 298.440,127.575 302.573 C 128.633 308.479,128.380 308.652,118.639 308.699 C 110.651 308.738,110.128 308.861,110.563 310.597 C 111.143 312.905,115.565 313.818,119.296 312.400 C 123.674 310.736,127.252 314.394,123.812 317.018 C 117.335 321.958,106.034 319.218,102.813 311.926 C 97.938 300.887,108.097 289.624,119.486 293.442 M186.018 293.442 C 187.853 293.987,188.495 294.009,190.256 293.586 C 196.930 291.985,197.200 292.477,197.200 306.248 C 197.200 319.758,197.491 318.967,192.643 318.636 C 190.859 318.515,188.950 318.391,188.400 318.360 C 187.850 318.329,186.237 318.628,184.815 319.023 C 175.030 321.742,166.818 310.158,171.385 300.080 C 174.060 294.179,179.772 291.588,186.018 293.442 M253.033 294.099 C 243.087 297.884,241.378 311.157,250.126 316.679 C 259.216 322.418,271.189 316.560,271.325 306.309 C 271.446 297.204,261.798 290.764,253.033 294.099 M283.866 294.072 C 270.050 298.456,272.827 317.807,287.400 318.695 C 294.510 319.128,298.692 316.079,295.334 312.912 C 293.767 311.434,293.960 311.450,289.763 312.448 C 284.925 313.598,280.628 308.491,282.425 303.726 C 283.683 300.388,286.803 299.067,291.216 300.003 C 293.849 300.562,294.945 300.171,296.228 298.214 C 298.472 294.788,290.269 292.040,283.866 294.072 M112.932 299.570 C 110.978 300.463,110.091 301.746,110.821 302.626 C 111.504 303.448,118.500 303.443,119.184 302.619 C 120.971 300.467,116.133 298.107,112.932 299.570 M117.600 300.118 C 120.010 301.337,118.945 302.589,115.400 302.702 C 111.836 302.816,110.983 302.514,111.376 301.277 C 111.847 299.792,115.581 299.096,117.600 300.118 M262.078 301.490 C 264.948 304.360,264.931 308.196,262.036 310.900 C 258.135 314.545,251.600 311.619,251.600 306.227 C 251.600 300.463,258.109 297.520,262.078 301.490 M181.628 300.681 C 177.679 302.751,177.288 309.002,180.968 311.246 C 184.623 313.475,189.035 311.141,189.450 306.760 C 189.899 302.009,185.548 298.628,181.628 300.681 M237.887 302.695 C 237.795 303.303,237.717 302.900,237.714 301.800 C 237.711 300.700,237.787 300.203,237.882 300.695 C 237.977 301.186,237.979 302.086,237.887 302.695 M186.800 301.559 C 190.975 304.472,188.939 311.600,183.932 311.600 C 182.289 311.600,181.835 311.408,180.633 310.206 C 175.976 305.550,181.474 297.843,186.800 301.559 M217.595 302.259 C 222.301 303.200,223.611 309.991,219.524 312.259 C 218.067 313.067,210.858 312.977,209.931 312.138 C 208.802 311.116,208.855 303.945,210.000 302.800 C 210.843 301.957,214.708 301.682,217.595 302.259 " stroke="none" fill="#89aff8" fill-rule="evenodd"></path><path id="path2" d="M0.000 200.000 L 0.000 400.000 200.000 400.000 L 400.000 400.000 400.000 200.000 L 400.000 0.000 200.000 0.000 L 0.000 0.000 0.000 200.000 M286.631 74.195 L 287.625 75.189 287.513 139.584 L 287.400 203.978 286.489 204.889 L 285.578 205.800 243.289 206.000 L 201.000 206.200 200.800 227.089 L 200.600 247.978 199.689 248.889 L 198.778 249.800 156.889 249.919 C 112.492 250.045,112.730 250.054,111.221 248.136 C 110.320 246.991,109.903 122.825,110.788 119.011 C 111.436 116.213,108.275 116.401,154.976 116.394 C 178.309 116.391,197.646 116.232,197.947 116.041 C 198.398 115.756,198.504 112.149,198.547 95.747 C 198.601 75.256,198.655 74.511,200.160 73.506 C 200.402 73.344,219.733 73.209,243.118 73.206 L 285.636 73.200 286.631 74.195 M201.361 118.981 C 200.878 119.336,200.807 122.513,200.895 139.800 L 201.000 160.200 220.800 160.296 C 232.839 160.354,240.835 160.243,241.200 160.011 C 241.991 159.509,242.335 121.775,241.566 119.919 L 241.103 118.800 222.651 118.748 C 212.503 118.720,203.690 118.666,203.066 118.629 C 202.442 118.592,201.675 118.750,201.361 118.981 M158.299 162.760 C 157.273 163.089,157.212 164.229,157.206 183.110 L 157.200 202.420 158.226 202.810 C 159.521 203.302,196.386 203.338,197.674 202.848 L 198.600 202.496 198.536 184.748 C 198.500 174.987,198.455 166.058,198.435 164.907 L 198.400 162.815 178.599 162.707 C 167.709 162.648,158.574 162.672,158.299 162.760 M240.135 279.975 C 241.931 280.658,242.032 281.830,241.907 300.534 L 241.792 317.986 240.883 318.893 C 239.591 320.181,234.034 320.211,232.760 318.937 C 231.892 318.070,231.476 313.024,231.609 305.000 C 231.638 303.240,231.694 297.300,231.734 291.800 C 231.812 280.975,231.956 280.181,233.900 279.887 C 236.048 279.561,239.162 279.605,240.135 279.975 M309.863 280.491 C 310.466 281.095,310.564 282.366,310.678 291.072 C 310.814 301.594,310.972 302.431,312.418 300.331 C 317.623 292.772,318.837 291.855,323.281 292.129 C 327.328 292.378,328.407 294.132,326.100 296.712 C 320.291 303.211,319.394 305.109,320.997 307.508 C 322.329 309.503,325.152 313.469,326.471 315.200 C 328.936 318.435,328.365 319.478,323.926 319.853 C 318.789 320.287,317.408 319.270,312.580 311.501 C 310.969 308.908,310.800 309.064,310.800 313.140 C 310.800 318.932,310.477 319.411,306.295 319.826 C 300.570 320.395,300.729 320.978,300.706 299.228 L 300.688 281.455 301.812 280.488 C 303.225 279.272,308.646 279.274,309.863 280.491 M100.040 281.242 C 100.987 282.257,101.200 282.837,101.200 284.409 C 101.200 287.200,100.078 289.607,97.121 293.161 C 96.864 293.470,96.029 294.640,95.265 295.761 C 94.501 296.883,93.409 298.369,92.838 299.064 C 92.267 299.760,91.350 300.991,90.800 301.800 C 90.250 302.609,89.350 303.841,88.800 304.537 C 88.250 305.233,87.620 306.092,87.400 306.445 C 87.180 306.799,86.665 307.562,86.256 308.141 C 84.911 310.045,85.374 310.225,91.855 310.322 C 95.125 310.371,98.272 310.508,98.850 310.626 L 99.900 310.842 100.079 306.121 C 100.242 301.809,100.350 301.265,101.329 299.844 C 101.918 298.988,102.400 298.077,102.400 297.818 C 102.400 297.559,103.289 296.571,104.375 295.622 C 111.195 289.665,119.163 289.658,125.602 295.602 C 127.601 297.447,127.626 297.440,127.900 295.007 C 128.125 293.015,129.387 291.605,130.954 291.595 C 133.385 291.579,133.599 291.309,133.610 288.253 C 133.630 282.038,134.274 281.200,139.032 281.200 C 143.800 281.200,144.037 281.460,144.352 287.026 L 144.600 291.400 148.478 291.514 C 153.143 291.652,153.169 291.626,153.158 286.878 C 153.147 281.838,153.820 281.200,159.150 281.200 C 163.631 281.200,164.451 282.235,164.371 287.800 C 164.314 291.785,164.240 291.599,165.900 291.606 C 168.828 291.617,170.318 293.304,170.377 296.676 L 170.400 297.952 172.420 295.816 C 173.531 294.642,175.016 293.445,175.720 293.157 C 176.424 292.869,177.220 292.419,177.488 292.158 C 178.230 291.433,182.309 291.141,185.000 291.621 C 187.697 292.101,187.738 292.102,192.313 291.761 C 198.823 291.276,198.800 291.227,198.800 305.569 C 198.800 317.898,198.692 318.990,197.384 319.847 C 195.851 320.852,191.139 321.045,189.648 320.165 C 188.425 319.442,188.355 319.442,187.015 320.164 C 183.234 322.200,176.703 320.658,173.015 316.857 C 169.703 313.444,168.800 311.066,168.800 305.759 C 168.800 300.699,168.969 300.949,165.900 301.457 L 164.400 301.705 164.398 309.152 C 164.395 319.910,163.950 320.800,158.575 320.800 C 153.624 320.800,153.120 319.808,153.089 310.006 C 153.059 300.853,153.227 301.200,148.848 301.200 C 144.232 301.200,144.452 300.749,144.316 310.490 C 144.175 320.571,144.212 320.493,139.447 320.734 C 133.997 321.009,133.600 320.255,133.600 309.627 C 133.600 301.118,133.629 301.200,130.624 301.200 L 129.194 301.200 129.448 303.932 C 129.847 308.217,128.407 310.400,125.181 310.400 C 123.757 310.400,123.677 310.888,124.936 311.879 C 128.207 314.451,127.062 317.361,121.800 319.847 C 119.187 321.082,111.951 321.519,110.738 320.516 C 110.442 320.271,109.402 319.753,108.428 319.363 C 107.453 318.974,106.323 318.373,105.916 318.028 C 104.194 316.566,102.699 314.921,102.071 313.800 L 101.400 312.600 101.280 315.391 C 101.050 320.712,100.782 320.800,84.842 320.800 L 72.045 320.800 70.922 319.835 C 68.892 318.088,69.226 312.900,71.570 309.767 C 74.600 305.718,75.400 304.633,76.123 303.600 C 76.508 303.050,77.364 301.880,78.025 301.000 C 78.686 300.120,79.665 298.770,80.200 298.000 C 80.735 297.230,81.717 295.880,82.382 295.000 C 85.982 290.236,86.147 290.414,78.122 290.406 C 70.183 290.398,69.800 290.159,69.800 285.200 C 69.800 282.114,69.863 281.877,70.922 280.965 L 72.045 280.000 85.462 280.000 L 98.879 280.000 100.040 281.242 M221.293 281.352 C 228.247 282.988,231.690 291.557,227.662 297.200 C 227.270 297.750,226.823 298.411,226.669 298.670 C 226.511 298.936,227.066 299.921,227.952 300.945 C 233.604 307.475,230.254 316.942,221.469 319.267 C 217.004 320.449,202.782 320.160,201.484 318.861 L 200.600 317.976 200.586 300.288 L 200.571 282.600 201.467 281.700 C 202.570 280.592,216.990 280.339,221.293 281.352 M211.300 289.212 C 210.251 289.634,209.931 294.332,210.900 295.097 C 212.663 296.489,218.425 295.471,219.186 293.634 C 220.586 290.254,215.627 287.473,211.300 289.212 M264.107 293.074 C 268.739 295.451,271.550 298.794,272.622 303.200 L 273.060 305.000 273.570 303.207 C 276.190 294.008,285.986 289.323,294.516 293.191 C 298.954 295.203,299.408 296.769,296.450 299.870 C 294.154 302.277,293.134 302.711,291.809 301.842 C 286.109 298.108,280.397 305.760,285.610 310.147 C 287.056 311.364,288.872 311.515,291.062 310.600 C 293.097 309.749,294.010 309.870,295.556 311.192 C 299.718 314.751,299.025 317.461,293.418 319.559 C 285.288 322.601,276.003 317.674,273.609 309.048 L 273.067 307.096 272.518 309.238 C 270.371 317.629,261.094 322.502,252.995 319.493 C 240.488 314.848,239.424 299.423,251.194 293.378 C 254.833 291.509,260.784 291.368,264.107 293.074 M114.200 301.200 C 114.336 301.420,115.202 301.597,116.124 301.594 C 117.353 301.589,117.640 301.484,117.200 301.200 C 116.398 300.682,113.880 300.682,114.200 301.200 M256.200 301.346 C 252.595 303.005,251.889 307.011,254.724 309.727 C 256.923 311.834,259.463 311.768,261.454 309.551 C 264.903 305.710,260.764 299.245,256.200 301.346 M182.092 301.998 C 180.303 303.092,179.843 304.280,180.176 306.944 C 180.867 312.473,188.004 311.677,187.998 306.072 C 187.996 304.128,186.308 301.600,185.012 301.600 C 184.712 301.600,184.226 301.510,183.933 301.399 C 183.640 301.289,182.811 301.558,182.092 301.998 M210.814 304.374 C 210.237 305.452,210.287 310.527,210.880 311.120 C 213.129 313.369,220.800 310.620,220.800 307.566 C 220.800 304.437,212.244 301.701,210.814 304.374 M112.580 310.432 C 111.819 311.664,117.092 312.171,118.624 311.013 C 119.224 310.559,119.264 310.417,118.800 310.388 C 114.356 310.113,112.770 310.124,112.580 310.432 " stroke="none" fill="#fbfbfc" fill-rule="evenodd"></path><path id="path3" d="M200.160 73.506 C 198.655 74.511,198.601 75.256,198.547 95.747 C 198.504 112.149,198.398 115.756,197.947 116.041 C 197.646 116.232,178.309 116.391,154.976 116.394 C 108.275 116.401,111.436 116.213,110.788 119.011 C 109.903 122.825,110.320 246.991,111.221 248.136 C 112.730 250.054,112.492 250.045,156.889 249.919 L 198.778 249.800 199.689 248.889 L 200.600 247.978 200.800 227.089 L 201.000 206.200 243.289 206.000 L 285.578 205.800 286.489 204.889 L 287.400 203.978 287.513 139.584 L 287.625 75.189 286.631 74.195 L 285.636 73.200 243.118 73.206 C 219.733 73.209,200.402 73.344,200.160 73.506 M285.520 75.280 C 286.337 76.097,286.203 202.332,285.384 203.501 L 284.768 204.381 244.269 204.394 C 221.994 204.402,202.921 204.292,201.885 204.150 L 200.000 203.891 200.000 183.133 C 200.000 165.155,200.079 162.344,200.593 162.147 C 200.920 162.022,210.385 161.893,221.628 161.860 L 242.070 161.800 242.835 160.856 C 244.055 159.350,244.022 119.222,242.800 118.000 C 242.021 117.221,241.467 117.200,221.633 117.200 C 210.431 117.200,200.981 117.091,200.633 116.957 C 199.802 116.638,199.654 76.106,200.480 75.280 C 201.176 74.584,284.824 74.584,285.520 75.280 M200.000 139.400 L 200.000 161.600 180.500 161.618 C 159.839 161.637,157.334 161.706,156.770 162.270 C 156.207 162.833,156.215 203.175,156.777 203.738 C 157.110 204.071,163.193 204.256,178.520 204.400 L 199.800 204.600 199.904 225.896 C 200.005 246.808,199.992 247.208,199.198 248.002 C 197.953 249.247,113.082 249.073,112.168 247.824 C 111.683 247.161,111.600 237.755,111.600 183.550 C 111.600 120.166,111.637 118.333,112.925 117.514 C 113.186 117.348,132.885 117.209,156.700 117.206 L 200.000 117.200 200.000 139.400 M222.651 118.748 L 241.103 118.800 241.566 119.919 C 242.335 121.775,241.991 159.509,241.200 160.011 C 240.835 160.243,232.839 160.354,220.800 160.296 L 201.000 160.200 200.895 139.800 C 200.781 117.538,200.684 118.488,203.066 118.629 C 203.690 118.666,212.503 118.720,222.651 118.748 M198.435 164.907 C 198.455 166.058,198.500 174.987,198.536 184.748 L 198.600 202.496 197.674 202.848 C 196.386 203.338,159.521 203.302,158.226 202.810 L 157.200 202.420 157.206 183.110 C 157.209 172.489,157.344 163.602,157.506 163.360 C 158.009 162.607,158.313 162.597,178.599 162.707 L 198.400 162.815 198.435 164.907 M233.900 279.887 C 231.956 280.181,231.812 280.975,231.734 291.800 C 231.694 297.300,231.638 303.240,231.609 305.000 C 231.476 313.024,231.892 318.070,232.760 318.937 C 234.034 320.211,239.591 320.181,240.883 318.893 L 241.792 317.986 241.907 300.534 C 242.056 278.091,242.261 278.620,233.900 279.887 M301.812 280.488 L 300.688 281.455 300.706 299.228 C 300.729 320.978,300.570 320.395,306.295 319.826 C 310.477 319.411,310.800 318.932,310.800 313.140 C 310.800 309.064,310.969 308.908,312.580 311.501 C 317.408 319.270,318.789 320.287,323.926 319.853 C 328.365 319.478,328.936 318.435,326.471 315.200 C 325.152 313.469,322.329 309.503,320.997 307.508 C 319.394 305.109,320.291 303.211,326.100 296.712 C 328.407 294.132,327.328 292.378,323.281 292.129 C 318.837 291.855,317.623 292.772,312.418 300.331 C 310.972 302.431,310.814 301.594,310.678 291.072 C 310.524 279.304,310.756 279.877,306.056 279.663 C 303.224 279.535,302.832 279.611,301.812 280.488 M70.922 280.965 C 69.863 281.877,69.800 282.114,69.800 285.200 C 69.800 290.159,70.183 290.398,78.122 290.406 C 86.147 290.414,85.982 290.236,82.382 295.000 C 81.717 295.880,80.735 297.230,80.200 298.000 C 79.665 298.770,78.686 300.120,78.025 301.000 C 77.364 301.880,76.508 303.050,76.123 303.600 C 75.400 304.633,74.600 305.718,71.570 309.767 C 69.226 312.900,68.892 318.088,70.922 319.835 L 72.045 320.800 84.842 320.800 C 100.782 320.800,101.050 320.712,101.280 315.391 L 101.400 312.600 102.071 313.800 C 102.699 314.921,104.194 316.566,105.916 318.028 C 106.323 318.373,107.453 318.974,108.428 319.363 C 109.402 319.753,110.442 320.271,110.738 320.516 C 111.951 321.519,119.187 321.082,121.800 319.847 C 127.062 317.361,128.207 314.451,124.936 311.879 C 123.677 310.888,123.757 310.400,125.181 310.400 C 128.407 310.400,129.847 308.217,129.448 303.932 L 129.194 301.200 130.624 301.200 C 133.629 301.200,133.600 301.118,133.600 309.627 C 133.600 320.255,133.997 321.009,139.447 320.734 C 144.212 320.493,144.175 320.571,144.316 310.490 C 144.452 300.749,144.232 301.200,148.848 301.200 C 153.227 301.200,153.059 300.853,153.089 310.006 C 153.120 319.808,153.624 320.800,158.575 320.800 C 163.950 320.800,164.395 319.910,164.398 309.152 L 164.400 301.705 165.900 301.457 C 168.969 300.949,168.800 300.699,168.800 305.759 C 168.800 311.066,169.703 313.444,173.015 316.857 C 176.703 320.658,183.234 322.200,187.015 320.164 C 188.355 319.442,188.425 319.442,189.648 320.165 C 191.139 321.045,195.851 320.852,197.384 319.847 C 198.692 318.990,198.800 317.898,198.800 305.569 C 198.800 291.227,198.823 291.276,192.313 291.761 C 187.738 292.102,187.697 292.101,185.000 291.621 C 182.309 291.141,178.230 291.433,177.488 292.158 C 177.220 292.419,176.424 292.869,175.720 293.157 C 175.016 293.445,173.531 294.642,172.420 295.816 L 170.400 297.952 170.377 296.676 C 170.318 293.304,168.828 291.617,165.900 291.606 C 164.240 291.599,164.314 291.785,164.371 287.800 C 164.451 282.235,163.631 281.200,159.150 281.200 C 153.820 281.200,153.147 281.838,153.158 286.878 C 153.169 291.626,153.143 291.652,148.478 291.514 L 144.600 291.400 144.352 287.026 C 144.037 281.460,143.800 281.200,139.032 281.200 C 134.274 281.200,133.630 282.038,133.610 288.253 C 133.599 291.309,133.385 291.579,130.954 291.595 C 129.387 291.605,128.125 293.015,127.900 295.007 C 127.626 297.440,127.601 297.447,125.602 295.602 C 119.163 289.658,111.195 289.665,104.375 295.622 C 103.289 296.571,102.400 297.559,102.400 297.818 C 102.400 298.077,101.918 298.988,101.329 299.844 C 100.350 301.265,100.242 301.809,100.079 306.121 L 99.900 310.842 98.850 310.626 C 98.272 310.508,95.125 310.371,91.855 310.322 C 85.374 310.225,84.911 310.045,86.256 308.141 C 86.665 307.562,87.180 306.799,87.400 306.445 C 87.620 306.092,88.250 305.233,88.800 304.537 C 89.350 303.841,90.250 302.609,90.800 301.800 C 91.350 300.991,92.267 299.760,92.838 299.064 C 93.409 298.369,94.501 296.883,95.265 295.761 C 96.029 294.640,96.864 293.470,97.121 293.161 C 100.078 289.607,101.200 287.200,101.200 284.409 C 101.200 282.837,100.987 282.257,100.040 281.242 L 98.879 280.000 85.462 280.000 L 72.045 280.000 70.922 280.965 M201.467 281.700 L 200.571 282.600 200.586 300.288 L 200.600 317.976 201.484 318.861 C 202.782 320.160,217.004 320.449,221.469 319.267 C 230.254 316.942,233.604 307.475,227.952 300.945 C 227.066 299.921,226.511 298.936,226.669 298.670 C 226.823 298.411,227.270 297.750,227.662 297.200 C 231.690 291.557,228.247 282.988,221.293 281.352 C 216.990 280.339,202.570 280.592,201.467 281.700 M99.111 281.823 C 100.833 283.029,100.398 286.949,98.197 290.055 C 97.205 291.455,95.956 293.230,95.422 294.000 C 94.888 294.770,92.789 297.650,90.757 300.400 C 84.987 308.209,84.000 309.680,84.000 310.466 C 84.000 311.375,83.649 311.333,91.657 311.370 C 99.793 311.407,100.000 311.508,100.000 315.433 C 100.000 319.710,100.391 319.600,85.128 319.600 L 72.364 319.600 71.382 318.618 C 68.997 316.233,69.914 313.470,75.693 305.639 C 77.250 303.527,79.520 300.450,80.736 298.800 C 81.951 297.150,83.734 294.751,84.697 293.469 C 87.667 289.514,87.563 289.437,78.867 289.200 C 70.342 288.967,70.400 288.995,70.400 285.124 C 70.400 281.034,69.779 281.200,85.111 281.200 C 96.330 281.200,98.350 281.290,99.111 281.823 M239.945 282.239 C 240.853 284.231,240.499 316.701,239.560 317.640 C 238.666 318.534,235.354 318.697,234.277 317.900 C 233.394 317.248,233.074 283.673,233.935 282.100 C 234.727 280.653,239.270 280.759,239.945 282.239 M308.786 281.974 C 309.040 282.448,309.200 286.617,309.200 292.741 C 309.200 306.151,309.545 306.703,314.047 300.500 C 318.685 294.111,318.824 294.000,322.204 294.000 C 326.212 294.000,326.201 294.287,321.974 299.725 C 317.524 305.450,317.526 305.104,321.900 311.181 C 323.825 313.856,325.564 316.279,325.764 316.568 C 326.644 317.835,325.725 318.400,322.786 318.400 C 319.026 318.400,318.959 318.351,315.132 312.748 C 310.128 305.424,309.216 305.413,309.206 312.677 C 309.200 316.847,309.139 317.197,308.311 317.777 C 307.179 318.570,303.477 318.616,302.837 317.844 C 302.110 316.969,302.036 282.721,302.759 281.850 C 303.600 280.836,308.228 280.931,308.786 281.974 M142.887 282.726 C 143.217 283.055,143.449 284.698,143.536 287.319 C 143.717 292.740,143.775 292.800,148.800 292.800 C 153.946 292.800,154.170 292.575,154.280 287.293 C 154.373 282.803,154.643 282.375,157.548 282.095 C 162.456 281.624,163.081 282.234,163.362 287.775 C 163.586 292.197,163.901 292.800,165.987 292.800 C 170.333 292.800,170.456 299.887,166.122 300.609 C 165.285 300.748,164.393 300.926,164.140 301.003 C 163.413 301.226,163.197 303.727,163.328 310.400 C 163.496 318.882,163.124 319.600,158.559 319.600 C 154.473 319.600,154.443 319.528,154.304 309.319 C 154.178 300.001,154.558 300.595,148.746 300.638 C 143.235 300.680,143.615 300.003,143.600 309.800 C 143.585 319.523,143.546 319.600,138.618 319.600 C 134.757 319.600,134.735 319.547,134.624 309.950 C 134.515 300.479,134.655 300.939,131.782 300.580 C 129.176 300.255,128.800 299.767,128.800 296.715 C 128.800 293.883,129.559 292.800,131.546 292.800 C 134.058 292.800,134.513 292.177,134.444 288.838 C 134.375 285.466,134.937 283.003,135.912 282.403 C 136.845 281.830,142.239 282.080,142.887 282.726 M223.200 283.500 C 228.269 286.759,229.485 291.857,226.297 296.485 C 224.432 299.193,224.430 299.157,226.558 301.552 C 231.428 307.036,229.682 314.094,222.600 317.547 C 220.652 318.497,203.582 318.725,202.670 317.813 C 201.791 316.934,201.628 283.603,202.500 282.887 C 203.944 281.702,221.197 282.212,223.200 283.500 M210.089 288.223 C 208.865 289.080,208.746 295.065,209.931 296.138 C 210.786 296.912,216.286 297.077,218.261 296.389 C 221.635 295.212,221.437 288.915,217.996 287.957 C 216.000 287.401,211.022 287.569,210.089 288.223 M217.344 289.351 C 219.954 290.441,220.162 294.302,217.662 295.252 C 216.390 295.736,211.569 295.625,210.900 295.097 C 209.931 294.332,210.251 289.634,211.300 289.212 C 212.672 288.661,215.869 288.734,217.344 289.351 M120.134 293.095 C 124.919 294.974,127.934 299.138,128.292 304.363 C 128.611 309.006,128.718 308.949,119.088 309.200 C 111.557 309.396,111.397 309.418,111.275 310.275 C 110.952 312.545,116.252 313.355,119.987 311.606 L 121.966 310.679 123.391 311.766 C 126.363 314.033,126.598 315.598,124.235 317.401 C 118.141 322.049,107.525 320.203,103.252 313.753 C 95.807 302.514,107.546 288.150,120.134 293.095 M185.802 292.860 C 187.935 293.560,188.607 293.634,189.429 293.260 C 191.264 292.423,196.157 292.669,197.038 293.641 C 198.018 294.723,198.423 316.204,197.498 318.000 C 196.787 319.380,193.334 319.952,190.219 319.204 C 188.290 318.742,187.767 318.764,185.771 319.392 C 181.230 320.820,176.512 319.422,173.113 315.641 C 164.083 305.598,173.439 288.801,185.802 292.860 M251.194 293.378 C 244.328 296.904,240.883 305.749,244.055 311.708 C 250.756 324.295,269.072 322.706,272.518 309.238 L 273.067 307.096 273.609 309.048 C 276.456 319.308,289.587 324.055,297.033 317.518 C 300.461 314.507,295.491 308.749,291.062 310.600 C 288.872 311.515,287.056 311.364,285.610 310.147 C 280.397 305.760,286.109 298.108,291.809 301.842 C 293.134 302.711,294.154 302.277,296.450 299.870 C 299.408 296.769,298.954 295.203,294.516 293.191 C 285.986 289.323,276.190 294.008,273.570 303.207 L 273.060 305.000 272.622 303.200 C 270.387 294.010,259.595 289.063,251.194 293.378 M264.179 294.790 C 273.331 299.158,273.854 311.870,265.090 316.959 C 251.191 325.030,236.927 307.346,248.760 296.713 C 252.895 292.997,258.863 292.253,264.179 294.790 M294.061 294.510 C 298.783 296.622,296.456 301.115,291.216 300.003 C 286.803 299.067,283.683 300.388,282.425 303.726 C 280.628 308.491,284.925 313.598,289.763 312.448 C 293.960 311.450,293.767 311.434,295.334 312.912 C 301.541 318.766,285.616 321.141,278.870 315.367 C 267.890 305.968,280.616 288.495,294.061 294.510 M112.718 300.059 C 111.465 300.517,110.842 301.923,111.657 302.452 C 113.025 303.340,118.600 302.666,118.600 301.612 C 118.600 299.877,115.472 299.051,112.718 300.059 M255.848 299.993 C 253.403 300.769,251.600 303.415,251.600 306.227 C 251.600 311.619,258.135 314.545,262.036 310.900 C 267.061 306.206,262.362 297.925,255.848 299.993 M182.600 300.682 C 181.318 300.996,179.619 302.844,179.139 304.445 C 177.516 309.864,183.500 313.994,187.314 310.088 C 191.206 306.103,187.844 299.395,182.600 300.682 M117.200 301.200 C 117.640 301.484,117.353 301.589,116.124 301.594 C 115.202 301.597,114.336 301.420,114.200 301.200 C 113.880 300.682,116.398 300.682,117.200 301.200 M261.278 302.490 C 263.769 305.518,262.903 309.513,259.432 311.004 C 257.110 312.000,253.964 310.038,253.173 307.099 C 251.889 302.332,258.196 298.745,261.278 302.490 M185.012 301.600 C 186.308 301.600,187.996 304.128,187.998 306.072 C 188.004 311.677,180.867 312.473,180.176 306.944 C 179.785 303.817,181.934 300.646,183.933 301.399 C 184.226 301.510,184.712 301.600,185.012 301.600 M210.000 302.800 C 208.855 303.945,208.802 311.116,209.931 312.138 C 210.858 312.977,218.067 313.067,219.524 312.259 C 223.611 309.991,222.301 303.200,217.595 302.259 C 214.708 301.682,210.843 301.957,210.000 302.800 M217.674 303.953 C 223.152 306.041,220.942 311.600,214.634 311.600 C 210.607 311.600,210.400 311.419,210.400 307.894 C 210.400 303.899,210.650 303.600,213.988 303.600 C 215.506 303.600,217.165 303.759,217.674 303.953 M118.800 310.388 C 119.264 310.417,119.224 310.559,118.624 311.013 C 117.731 311.688,112.993 311.835,112.600 311.200 C 111.940 310.132,112.816 310.018,118.800 310.388 " stroke="none" fill="#c6dff9" fill-rule="evenodd"></path><path id="path4" d="M113.428 118.130 C 112.080 119.116,112.003 122.796,112.033 184.695 C 112.062 243.893,112.093 246.426,112.796 247.295 L 113.529 248.200 155.997 248.200 C 197.574 248.200,198.476 248.184,199.032 247.424 C 199.924 246.205,199.872 206.966,198.977 205.689 L 198.355 204.800 177.854 204.800 C 160.783 204.800,157.223 204.705,156.576 204.232 C 155.528 203.466,155.131 163.595,156.157 162.191 C 156.717 161.425,157.399 161.394,177.735 161.200 C 189.284 161.090,198.884 160.850,199.067 160.667 C 199.883 159.850,199.454 118.775,198.624 118.168 C 197.504 117.349,114.546 117.312,113.428 118.130 M198.267 118.933 C 198.758 119.424,198.909 158.060,198.425 159.335 L 198.028 160.379 177.228 160.490 C 157.881 160.592,156.378 160.650,155.714 161.314 C 154.571 162.458,154.616 203.491,155.762 204.758 C 156.518 205.593,156.695 205.600,176.636 205.600 C 188.736 205.600,197.157 205.755,197.774 205.990 L 198.800 206.380 198.800 226.510 C 198.800 241.633,198.681 246.759,198.320 247.120 C 197.624 247.816,114.376 247.816,113.680 247.120 C 112.853 246.293,112.998 119.860,113.827 119.031 C 114.524 118.333,197.571 118.237,198.267 118.933 M71.600 282.400 C 70.634 283.366,70.494 286.628,71.367 287.824 C 71.884 288.531,72.532 288.609,78.667 288.706 C 89.284 288.872,89.011 288.337,82.800 296.806 C 81.150 299.056,79.440 301.390,79.000 301.993 C 78.560 302.596,77.120 304.559,75.800 306.356 C 70.696 313.304,69.818 315.620,71.423 317.911 C 72.045 318.799,72.061 318.800,85.161 318.800 C 100.207 318.800,99.600 318.946,99.600 315.330 C 99.600 312.102,99.348 312.000,91.345 312.000 C 81.644 312.000,81.619 311.963,86.728 305.061 C 98.915 288.597,99.600 287.525,99.600 284.915 C 99.600 281.542,99.851 281.600,85.200 281.600 C 72.933 281.600,72.367 281.633,71.600 282.400 M98.320 282.880 C 98.584 283.144,98.800 284.204,98.800 285.235 C 98.800 287.282,98.516 287.775,93.035 295.222 C 79.163 314.070,79.393 312.488,90.513 312.600 C 94.561 312.640,98.081 312.803,98.336 312.961 C 98.947 313.338,98.935 316.905,98.320 317.520 C 97.500 318.340,72.160 318.194,71.843 317.367 C 71.026 315.239,71.776 312.936,74.428 309.428 C 77.418 305.473,82.432 298.655,83.716 296.800 C 84.096 296.250,85.032 294.990,85.795 294.000 C 86.929 292.529,88.400 289.920,88.400 289.380 C 88.400 288.257,86.861 288.000,80.145 288.000 C 71.893 288.000,71.600 287.906,71.600 285.266 C 71.600 282.289,71.075 282.400,85.200 282.400 C 94.498 282.400,97.967 282.527,98.320 282.880 M135.614 283.574 C 135.386 283.999,135.197 285.844,135.194 287.674 C 135.186 292.090,134.747 292.912,132.199 293.276 C 127.812 293.904,127.813 299.604,132.200 300.154 C 135.172 300.527,135.200 300.614,135.200 309.503 C 135.200 319.020,135.111 318.800,138.952 318.800 C 143.305 318.800,143.200 319.036,143.200 309.278 L 143.200 301.218 144.186 300.572 C 144.976 300.055,146.015 299.954,149.419 300.063 C 155.097 300.246,154.800 299.720,154.800 309.614 C 154.800 318.963,154.727 318.800,158.903 318.800 C 162.884 318.800,162.800 318.995,162.800 309.745 C 162.800 301.062,162.925 300.546,165.105 300.192 C 168.141 299.699,168.400 299.449,168.400 297.009 C 168.400 294.448,167.508 293.200,165.676 293.200 C 163.437 293.200,163.021 292.462,162.793 288.085 C 162.530 283.050,162.340 282.800,158.774 282.800 C 155.161 282.800,154.800 283.280,154.800 288.089 C 154.800 293.009,154.578 293.200,148.849 293.200 C 143.445 293.200,143.472 293.225,143.193 287.992 C 142.927 283.011,142.755 282.800,138.965 282.800 C 136.471 282.800,135.966 282.917,135.614 283.574 M141.900 284.326 C 142.203 284.706,142.400 286.173,142.400 288.050 C 142.400 293.762,142.651 293.986,149.071 293.994 C 155.304 294.002,155.600 293.749,155.600 288.423 C 155.600 284.389,155.937 283.751,158.200 283.501 C 161.363 283.151,161.985 283.967,161.995 288.474 C 162.003 292.649,162.721 293.982,164.969 293.994 C 166.722 294.003,167.600 295.023,167.600 297.048 C 167.600 298.984,166.930 299.600,164.826 299.600 C 162.197 299.600,162.000 300.267,162.000 309.151 C 162.000 318.233,162.112 317.937,158.637 318.050 C 155.560 318.151,155.613 318.308,155.606 309.189 C 155.598 298.964,156.037 299.600,149.000 299.600 C 141.970 299.600,142.400 298.983,142.400 309.056 C 142.400 318.553,142.600 318.000,139.171 318.000 C 135.603 318.000,135.679 318.194,135.680 309.141 C 135.680 300.924,135.552 300.077,134.273 299.839 C 129.991 299.043,130.211 299.197,130.079 296.898 C 129.947 294.610,130.582 294.000,133.095 294.000 C 135.106 294.000,135.600 293.047,135.600 289.164 C 135.600 284.666,135.956 283.699,137.680 283.507 C 139.639 283.289,141.336 283.618,141.900 284.326 M225.880 288.936 C 225.767 289.231,225.835 289.726,226.031 290.036 C 226.291 290.447,226.389 290.301,226.394 289.500 C 226.401 288.306,226.204 288.090,225.880 288.936 M110.622 293.463 C 100.009 296.720,98.229 311.779,107.796 317.375 C 115.521 321.892,129.561 317.912,123.786 312.841 C 122.116 311.376,122.017 311.366,119.296 312.400 C 115.565 313.818,111.143 312.905,110.563 310.597 C 110.128 308.861,110.651 308.738,118.639 308.699 C 128.380 308.652,128.633 308.479,127.575 302.573 C 126.275 295.317,118.390 291.079,110.622 293.463 M178.110 293.462 C 164.015 298.453,170.458 323.013,184.815 319.023 C 186.237 318.628,187.850 318.329,188.400 318.360 C 188.950 318.391,190.859 318.515,192.643 318.636 C 197.491 318.967,197.200 319.758,197.200 306.248 C 197.200 292.477,196.930 291.985,190.256 293.586 C 188.495 294.009,187.853 293.987,186.018 293.442 C 183.373 292.657,180.362 292.664,178.110 293.462 M119.492 294.282 C 123.505 295.476,126.581 299.388,127.053 303.899 C 127.491 308.090,127.676 308.000,118.560 308.000 C 109.003 308.000,108.158 308.313,109.877 311.222 C 111.384 313.773,115.421 314.567,119.483 313.110 L 121.967 312.219 123.083 313.049 C 125.785 315.057,124.155 317.045,118.822 318.250 C 109.951 320.253,102.256 314.550,102.294 306.000 C 102.335 297.074,110.402 291.577,119.492 294.282 M186.191 294.431 C 188.332 295.232,188.475 295.237,190.201 294.578 C 192.309 293.773,195.499 293.974,196.218 294.957 C 196.761 295.699,196.815 316.668,196.276 317.500 C 195.859 318.145,191.204 318.167,189.807 317.531 C 188.976 317.152,188.347 317.197,186.548 317.764 C 179.315 320.044,173.240 316.832,171.353 309.730 C 168.657 299.587,176.994 290.990,186.191 294.431 M111.961 299.123 C 110.050 300.351,109.600 301.016,109.600 302.609 C 109.600 303.966,109.925 304.054,114.856 304.031 C 119.796 304.009,120.507 303.728,120.320 301.874 C 119.998 298.682,115.136 297.082,111.961 299.123 M118.072 299.844 C 119.336 300.490,119.862 301.802,119.184 302.619 C 118.500 303.443,111.504 303.448,110.821 302.626 C 108.914 300.328,114.685 298.114,118.072 299.844 M181.896 299.762 C 177.131 301.493,176.002 306.846,179.557 310.851 L 181.109 312.600 183.983 312.600 C 188.638 312.600,191.436 308.635,190.048 304.004 C 189.553 302.351,186.843 299.603,185.699 299.595 C 185.314 299.592,184.640 299.505,184.200 299.402 C 183.760 299.299,182.723 299.461,181.896 299.762 M187.159 301.124 C 191.558 304.341,189.487 312.002,184.219 311.999 C 180.396 311.996,178.123 309.419,178.499 305.514 C 178.934 300.979,183.675 298.576,187.159 301.124 M237.714 301.800 C 237.717 302.900,237.795 303.303,237.887 302.695 C 237.979 302.086,237.977 301.186,237.882 300.695 C 237.787 300.203,237.711 300.700,237.714 301.800 " stroke="none" fill="#6dadf5" fill-rule="evenodd"></path></g></svg>